<svg width="133" height="133" viewBox="0 0 133 133" fill="none" xmlns="http://www.w3.org/2000/svg">
<g id="Airplane" filter="url(#filter0_d_1082_440)">
<path id="Vector" d="M122.391 66.9364L83.125 47.3085V24.9375C83.125 20.5283 81.3734 16.2996 78.2556 13.1818C75.1379 10.0641 70.9092 8.3125 66.5 8.3125C62.0908 8.3125 57.8621 10.0641 54.7444 13.1818C51.6266 16.2996 49.875 20.5283 49.875 24.9375V47.3085L10.6088 66.9364C9.91831 67.2819 9.3377 67.813 8.9321 68.47C8.5265 69.1271 8.31195 69.8841 8.3125 70.6562V87.2812C8.31284 87.896 8.44956 88.5031 8.71281 89.0586C8.97606 89.6142 9.35927 90.1045 9.83484 90.4941C10.3104 90.8837 10.8665 91.1629 11.463 91.3117C12.0595 91.4604 12.6816 91.475 13.2844 91.3544L49.875 84.0394V93.8741L42.7782 100.966C42.3924 101.352 42.0864 101.81 41.8778 102.315C41.6692 102.82 41.5621 103.36 41.5625 103.906V120.531C41.5613 121.212 41.7276 121.883 42.0467 122.485C42.3658 123.087 42.8279 123.601 43.3924 123.983C43.9568 124.364 44.6064 124.601 45.2838 124.672C45.9613 124.743 46.6459 124.647 47.2773 124.391L66.5 116.697L85.7227 124.391C86.3541 124.647 87.0387 124.743 87.7162 124.672C88.3936 124.601 89.0432 124.364 89.6076 123.983C90.1721 123.601 90.6342 123.087 90.9533 122.485C91.2724 121.883 91.4387 121.212 91.4375 120.531V103.906C91.4379 103.36 91.3308 102.82 91.1222 102.315C90.9136 101.81 90.6076 101.352 90.2218 100.966L83.125 93.8741V84.0394L119.716 91.3544C120.318 91.475 120.94 91.4604 121.537 91.3117C122.134 91.1629 122.69 90.8837 123.165 90.4941C123.641 90.1045 124.024 89.6142 124.287 89.0586C124.55 88.5031 124.687 87.896 124.688 87.2812V70.6562C124.688 69.8841 124.474 69.1271 124.068 68.47C123.662 67.813 123.082 67.2819 122.391 66.9364ZM116.375 82.2106L79.7844 74.8956C79.1816 74.775 78.5595 74.7896 77.963 74.9383C77.3665 75.0871 76.8104 75.3663 76.3348 75.7559C75.8593 76.1455 75.4761 76.6358 75.2128 77.1914C74.9496 77.7469 74.8128 78.354 74.8125 78.9688V95.5938C74.8121 96.1397 74.9192 96.6804 75.1278 97.185C75.3364 97.6895 75.6424 98.148 76.0282 98.5343L83.125 105.626V114.39L68.0586 108.359C67.068 107.963 65.9631 107.963 64.9726 108.359L49.875 114.39V105.626L56.9718 98.5343C57.3576 98.148 57.6636 97.6895 57.8722 97.185C58.0808 96.6804 58.1879 96.1397 58.1875 95.5938V78.9688C58.1872 78.354 58.0504 77.7469 57.7872 77.1914C57.5239 76.6358 57.1407 76.1455 56.6652 75.7559C56.1896 75.3663 55.6335 75.0871 55.037 74.9383C54.4405 74.7896 53.8184 74.775 53.2156 74.8956L16.625 82.2106V73.2227L55.8912 53.5948C56.5817 53.2493 57.1623 52.7183 57.5679 52.0612C57.9735 51.4042 58.1881 50.6471 58.1875 49.875V24.9375C58.1875 22.7329 59.0633 20.6186 60.6222 19.0597C62.1811 17.5008 64.2954 16.625 66.5 16.625C68.7046 16.625 70.8189 17.5008 72.3778 19.0597C73.9367 20.6186 74.8125 22.7329 74.8125 24.9375V49.875C74.812 50.6471 75.0265 51.4042 75.4321 52.0612C75.8377 52.7183 76.4183 53.2493 77.1088 53.5948L116.375 73.2227V82.2106Z" fill="#303334"/>
</g>
<defs>
<filter id="filter0_d_1082_440" x="-4" y="0" width="141" height="141" filterUnits="userSpaceOnUse" color-interpolation-filters="sRGB">
<feFlood flood-opacity="0" result="BackgroundImageFix"/>
<feColorMatrix in="SourceAlpha" type="matrix" values="0 0 0 0 0 0 0 0 0 0 0 0 0 0 0 0 0 0 127 0" result="hardAlpha"/>
<feOffset dy="4"/>
<feGaussianBlur stdDeviation="2"/>
<feComposite in2="hardAlpha" operator="out"/>
<feColorMatrix type="matrix" values="0 0 0 0 0 0 0 0 0 0 0 0 0 0 0 0 0 0 0.25 0"/>
<feBlend mode="normal" in2="BackgroundImageFix" result="effect1_dropShadow_1082_440"/>
<feBlend mode="normal" in="SourceGraphic" in2="effect1_dropShadow_1082_440" result="shape"/>
</filter>
</defs>
</svg>
