<svg width="181" height="61" viewBox="0 0 181 61" fill="none" xmlns="http://www.w3.org/2000/svg">
<path d="M43.2863 31.8488L24.2238 50.9113C24.0466 51.0884 23.8364 51.2289 23.605 51.3247C23.3736 51.4206 23.1256 51.4699 22.8751 51.4699C22.6246 51.4699 22.3766 51.4206 22.1452 51.3247C21.9138 51.2289 21.7035 51.0884 21.5264 50.9113C21.3493 50.7342 21.2088 50.5239 21.113 50.2925C21.0171 50.0611 20.9678 49.8131 20.9678 49.5626C20.9678 49.3121 21.0171 49.0641 21.113 48.8327C21.2088 48.6013 21.3493 48.391 21.5264 48.2139L39.2426 30.5001L21.5264 12.7863C21.1687 12.4286 20.9678 11.9434 20.9678 11.4376C20.9678 10.9317 21.1687 10.4466 21.5264 10.0889C21.8841 9.73122 22.3692 9.53027 22.8751 9.53027C23.3809 9.53027 23.8661 9.73122 24.2238 10.0889L43.2863 29.1514C43.4635 29.3285 43.6041 29.5387 43.7 29.7701C43.796 30.0015 43.8453 30.2496 43.8453 30.5001C43.8453 30.7506 43.796 30.9986 43.7 31.2301C43.6041 31.4615 43.4635 31.6717 43.2863 31.8488Z" fill="#343330"/>
<path d="M72.2863 31.8488L53.2238 50.9113C53.0466 51.0884 52.8364 51.2289 52.605 51.3247C52.3736 51.4206 52.1256 51.4699 51.8751 51.4699C51.6246 51.4699 51.3766 51.4206 51.1452 51.3247C50.9138 51.2289 50.7035 51.0884 50.5264 50.9113C50.3493 50.7342 50.2088 50.5239 50.113 50.2925C50.0171 50.0611 49.9678 49.8131 49.9678 49.5626C49.9678 49.3121 50.0171 49.0641 50.113 48.8327C50.2088 48.6013 50.3493 48.391 50.5264 48.2139L68.2426 30.5001L50.5264 12.7863C50.1687 12.4286 49.9678 11.9434 49.9678 11.4376C49.9678 10.9317 50.1687 10.4466 50.5264 10.0889C50.8841 9.73122 51.3692 9.53027 51.8751 9.53027C52.3809 9.53027 52.8661 9.73122 53.2238 10.0889L72.2863 29.1514C72.4635 29.3285 72.6041 29.5387 72.7 29.7701C72.796 30.0015 72.8453 30.2496 72.8453 30.5001C72.8453 30.7506 72.796 30.9986 72.7 31.2301C72.6041 31.4615 72.4635 31.6717 72.2863 31.8488Z" fill="#343330"/>
<path d="M104.286 31.8488L85.2238 50.9113C85.0466 51.0884 84.8364 51.2289 84.605 51.3247C84.3736 51.4206 84.1256 51.4699 83.8751 51.4699C83.6246 51.4699 83.3766 51.4206 83.1452 51.3247C82.9138 51.2289 82.7035 51.0884 82.5264 50.9113C82.3493 50.7342 82.2088 50.5239 82.113 50.2925C82.0171 50.0611 81.9678 49.8131 81.9678 49.5626C81.9678 49.3121 82.0171 49.0641 82.113 48.8327C82.2088 48.6013 82.3493 48.391 82.5264 48.2139L100.243 30.5001L82.5264 12.7863C82.1687 12.4286 81.9678 11.9434 81.9678 11.4376C81.9678 10.9317 82.1687 10.4466 82.5264 10.0889C82.8841 9.73122 83.3692 9.53027 83.8751 9.53027C84.3809 9.53027 84.8661 9.73122 85.2238 10.0889L104.286 29.1514C104.463 29.3285 104.604 29.5387 104.7 29.7701C104.796 30.0015 104.845 30.2496 104.845 30.5001C104.845 30.7506 104.796 30.9986 104.7 31.2301C104.604 31.4615 104.463 31.6717 104.286 31.8488Z" fill="#343330"/>
<path d="M133.286 31.8488L114.224 50.9113C114.047 51.0884 113.836 51.2289 113.605 51.3247C113.374 51.4206 113.126 51.4699 112.875 51.4699C112.625 51.4699 112.377 51.4206 112.145 51.3247C111.914 51.2289 111.704 51.0884 111.526 50.9113C111.349 50.7342 111.209 50.5239 111.113 50.2925C111.017 50.0611 110.968 49.8131 110.968 49.5626C110.968 49.3121 111.017 49.0641 111.113 48.8327C111.209 48.6013 111.349 48.391 111.526 48.2139L129.243 30.5001L111.526 12.7863C111.169 12.4286 110.968 11.9434 110.968 11.4376C110.968 10.9317 111.169 10.4466 111.526 10.0889C111.884 9.73122 112.369 9.53027 112.875 9.53027C113.381 9.53027 113.866 9.73122 114.224 10.0889L133.286 29.1514C133.463 29.3285 133.604 29.5387 133.7 29.7701C133.796 30.0015 133.845 30.2496 133.845 30.5001C133.845 30.7506 133.796 30.9986 133.7 31.2301C133.604 31.4615 133.463 31.6717 133.286 31.8488Z" fill="#343330"/>
<path d="M163.286 31.8488L144.224 50.9113C144.047 51.0884 143.836 51.2289 143.605 51.3247C143.374 51.4206 143.126 51.4699 142.875 51.4699C142.625 51.4699 142.377 51.4206 142.145 51.3247C141.914 51.2289 141.704 51.0884 141.526 50.9113C141.349 50.7342 141.209 50.5239 141.113 50.2925C141.017 50.0611 140.968 49.8131 140.968 49.5626C140.968 49.3121 141.017 49.0641 141.113 48.8327C141.209 48.6013 141.349 48.391 141.526 48.2139L159.243 30.5001L141.526 12.7863C141.169 12.4286 140.968 11.9434 140.968 11.4376C140.968 10.9317 141.169 10.4466 141.526 10.0889C141.884 9.73122 142.369 9.53027 142.875 9.53027C143.381 9.53027 143.866 9.73122 144.224 10.0889L163.286 29.1514C163.463 29.3285 163.604 29.5387 163.7 29.7701C163.796 30.0015 163.845 30.2496 163.845 30.5001C163.845 30.7506 163.796 30.9986 163.7 31.2301C163.604 31.4615 163.463 31.6717 163.286 31.8488Z" fill="#343330"/>
</svg>
